<svg xmlns="http://www.w3.org/2000/svg" xmlns:xlink="http://www.w3.org/1999/xlink" width="128" zoomAndPan="magnify" viewBox="0 0 96 30.000001" height="40" preserveAspectRatio="xMidYMid meet" version="1.0"><defs><g/><clipPath id="112bc70c6d"><path d="M 13 18 L 22 18 L 22 19.625 L 13 19.625 Z M 13 18 " clip-rule="nonzero"/></clipPath><clipPath id="78bcbfe6e4"><path d="M 16 1.480469 L 30.628906 1.480469 L 30.628906 16 L 16 16 Z M 16 1.480469 " clip-rule="nonzero"/></clipPath><clipPath id="0a89de8096"><path d="M 12.484375 16 L 23 16 L 23 19.625 L 12.484375 19.625 Z M 12.484375 16 " clip-rule="nonzero"/></clipPath></defs><g clip-path="url(#112bc70c6d)"><path fill="#f19828" d="M 13.054688 18.207031 L 21.882812 18.207031 L 21.882812 19.058594 L 13.054688 19.058594 Z M 13.054688 18.207031 " fill-opacity="1" fill-rule="nonzero"/></g><path fill="#f19828" d="M 20.617188 17.640625 L 14.320312 17.640625 C 14.382812 17.390625 14.519531 17.1875 14.722656 17.027344 C 14.921875 16.871094 15.152344 16.789062 15.410156 16.792969 L 19.527344 16.792969 C 19.78125 16.789062 20.011719 16.871094 20.214844 17.027344 C 20.417969 17.1875 20.550781 17.390625 20.617188 17.640625 Z M 20.617188 17.640625 " fill-opacity="1" fill-rule="nonzero"/><path fill="#f19828" d="M 20.613281 11.355469 C 20.695312 11.4375 20.738281 11.539062 20.738281 11.65625 C 20.738281 11.773438 20.695312 11.871094 20.613281 11.957031 L 20.355469 12.214844 C 20.273438 12.296875 20.171875 12.339844 20.054688 12.339844 C 19.941406 12.339844 19.839844 12.296875 19.757812 12.214844 L 16.953125 9.390625 C 16.871094 9.308594 16.828125 9.207031 16.828125 9.089844 C 16.828125 8.972656 16.871094 8.871094 16.953125 8.789062 L 17.210938 8.527344 C 17.292969 8.445312 17.394531 8.402344 17.507812 8.402344 C 17.625 8.402344 17.726562 8.445312 17.808594 8.527344 Z M 20.613281 11.355469 " fill-opacity="1" fill-rule="nonzero"/><path fill="#f19828" d="M 26.921875 5 C 27.003906 5.082031 27.042969 5.183594 27.042969 5.300781 C 27.042969 5.417969 27.003906 5.519531 26.921875 5.601562 L 26.660156 5.859375 C 26.578125 5.945312 26.480469 5.984375 26.363281 5.984375 C 26.246094 5.984375 26.148438 5.945312 26.0625 5.859375 L 23.257812 3.035156 C 23.175781 2.953125 23.136719 2.851562 23.136719 2.734375 C 23.136719 2.617188 23.175781 2.515625 23.257812 2.433594 L 23.519531 2.171875 C 23.601562 2.089844 23.699219 2.046875 23.816406 2.046875 C 23.933594 2.046875 24.03125 2.089844 24.113281 2.171875 Z M 26.921875 5 " fill-opacity="1" fill-rule="nonzero"/><path fill="#f19828" d="M 23.207031 9.472656 L 24.199219 8.472656 L 29.820312 14.136719 L 28.824219 15.140625 Z M 23.207031 9.472656 " fill-opacity="1" fill-rule="nonzero"/><path fill="#f19828" d="M 25.332031 5.925781 C 25.414062 6.007812 25.457031 6.109375 25.457031 6.226562 C 25.457031 6.34375 25.414062 6.445312 25.332031 6.527344 L 23.671875 8.203125 L 22.410156 9.476562 L 21.273438 10.617188 C 21.191406 10.699219 21.09375 10.742188 20.976562 10.742188 C 20.859375 10.742188 20.761719 10.699219 20.679688 10.617188 L 18.539062 8.460938 C 18.457031 8.378906 18.417969 8.277344 18.417969 8.160156 C 18.417969 8.042969 18.457031 7.945312 18.539062 7.859375 L 22.601562 3.769531 C 22.683594 3.6875 22.78125 3.644531 22.898438 3.644531 C 23.015625 3.644531 23.113281 3.6875 23.195312 3.769531 Z M 25.332031 5.925781 " fill-opacity="1" fill-rule="nonzero"/><g clip-path="url(#78bcbfe6e4)"><path fill="#34495e" d="M 30.617188 14.136719 L 28.824219 15.941406 L 22.808594 9.875 L 21.671875 11.019531 C 21.546875 11.148438 21.398438 11.234375 21.222656 11.277344 C 21.300781 11.460938 21.320312 11.652344 21.28125 11.847656 C 21.242188 12.046875 21.152344 12.214844 21.011719 12.355469 L 20.753906 12.617188 C 20.664062 12.710938 20.554688 12.78125 20.433594 12.832031 C 20.3125 12.882812 20.1875 12.910156 20.058594 12.910156 C 19.925781 12.910156 19.800781 12.882812 19.679688 12.832031 C 19.5625 12.78125 19.453125 12.710938 19.363281 12.617188 L 16.554688 9.789062 C 16.460938 9.699219 16.390625 9.589844 16.339844 9.46875 C 16.289062 9.347656 16.265625 9.21875 16.265625 9.089844 C 16.265625 8.957031 16.289062 8.832031 16.339844 8.710938 C 16.390625 8.589844 16.460938 8.480469 16.554688 8.386719 L 16.8125 8.125 C 16.953125 7.984375 17.121094 7.894531 17.316406 7.855469 C 17.511719 7.816406 17.703125 7.835938 17.886719 7.914062 C 17.929688 7.738281 18.015625 7.589844 18.140625 7.460938 L 22.199219 3.371094 C 22.324219 3.242188 22.476562 3.15625 22.648438 3.113281 C 22.570312 2.925781 22.550781 2.734375 22.589844 2.539062 C 22.628906 2.34375 22.71875 2.175781 22.859375 2.03125 L 23.121094 1.773438 C 23.210938 1.679688 23.320312 1.605469 23.441406 1.554688 C 23.558594 1.507812 23.6875 1.480469 23.816406 1.480469 C 23.949219 1.480469 24.074219 1.507812 24.195312 1.554688 C 24.3125 1.605469 24.421875 1.679688 24.511719 1.773438 L 27.320312 4.601562 C 27.410156 4.691406 27.480469 4.800781 27.53125 4.921875 C 27.582031 5.042969 27.605469 5.171875 27.605469 5.300781 C 27.605469 5.433594 27.582031 5.558594 27.53125 5.679688 C 27.480469 5.804688 27.410156 5.910156 27.320312 6.003906 L 27.058594 6.265625 C 26.917969 6.40625 26.75 6.496094 26.554688 6.535156 C 26.359375 6.574219 26.171875 6.554688 25.988281 6.476562 C 25.941406 6.652344 25.859375 6.800781 25.730469 6.929688 L 24.597656 8.074219 Z M 28.824219 15.136719 L 29.820312 14.136719 L 24.199219 8.472656 L 23.203125 9.476562 Z M 26.921875 5.601562 C 27.003906 5.519531 27.042969 5.417969 27.042969 5.300781 C 27.042969 5.183594 27.003906 5.082031 26.921875 5 L 24.113281 2.171875 C 24.03125 2.089844 23.933594 2.046875 23.816406 2.046875 C 23.699219 2.046875 23.601562 2.089844 23.519531 2.171875 L 23.257812 2.433594 C 23.175781 2.515625 23.136719 2.617188 23.136719 2.734375 C 23.136719 2.851562 23.175781 2.953125 23.257812 3.035156 L 26.066406 5.859375 C 26.148438 5.945312 26.25 5.984375 26.367188 5.984375 C 26.484375 5.984375 26.582031 5.945312 26.664062 5.859375 Z M 25.457031 6.230469 C 25.457031 6.113281 25.417969 6.011719 25.332031 5.929688 L 23.195312 3.773438 C 23.113281 3.691406 23.011719 3.648438 22.894531 3.648438 C 22.78125 3.648438 22.679688 3.691406 22.597656 3.773438 L 18.539062 7.859375 C 18.457031 7.941406 18.417969 8.042969 18.417969 8.160156 C 18.417969 8.277344 18.457031 8.378906 18.539062 8.460938 L 20.679688 10.617188 C 20.761719 10.699219 20.863281 10.742188 20.980469 10.742188 C 21.09375 10.742188 21.195312 10.699219 21.277344 10.617188 L 22.410156 9.476562 L 23.671875 8.203125 L 25.332031 6.527344 C 25.414062 6.445312 25.457031 6.347656 25.457031 6.230469 Z M 20.613281 11.957031 C 20.695312 11.875 20.738281 11.773438 20.738281 11.65625 C 20.738281 11.539062 20.695312 11.441406 20.613281 11.355469 L 17.808594 8.527344 C 17.726562 8.445312 17.625 8.402344 17.507812 8.402344 C 17.394531 8.402344 17.292969 8.445312 17.210938 8.527344 L 16.953125 8.789062 C 16.871094 8.871094 16.828125 8.972656 16.828125 9.089844 C 16.828125 9.207031 16.871094 9.308594 16.953125 9.390625 L 19.757812 12.214844 C 19.839844 12.296875 19.941406 12.339844 20.054688 12.339844 C 20.171875 12.339844 20.273438 12.296875 20.355469 12.214844 Z M 20.613281 11.957031 " fill-opacity="1" fill-rule="nonzero"/></g><g clip-path="url(#0a89de8096)"><path fill="#34495e" d="M 22.445312 17.640625 L 22.445312 19.625 L 12.492188 19.625 L 12.492188 17.640625 L 13.746094 17.640625 C 13.777344 17.445312 13.84375 17.257812 13.945312 17.082031 C 14.042969 16.90625 14.167969 16.753906 14.320312 16.625 C 14.472656 16.496094 14.644531 16.398438 14.832031 16.328125 C 15.015625 16.257812 15.210938 16.222656 15.410156 16.222656 L 19.527344 16.222656 C 19.726562 16.222656 19.917969 16.257812 20.105469 16.328125 C 20.292969 16.398438 20.464844 16.496094 20.613281 16.625 C 20.765625 16.753906 20.894531 16.90625 20.992188 17.082031 C 21.089844 17.257812 21.15625 17.445312 21.191406 17.640625 Z M 21.882812 19.058594 L 21.882812 18.207031 L 13.054688 18.207031 L 13.054688 19.058594 Z M 14.320312 17.640625 L 20.617188 17.640625 C 20.550781 17.390625 20.417969 17.1875 20.214844 17.027344 C 20.011719 16.871094 19.78125 16.789062 19.527344 16.792969 L 15.410156 16.792969 C 15.152344 16.789062 14.921875 16.871094 14.722656 17.027344 C 14.519531 17.1875 14.382812 17.390625 14.320312 17.640625 Z M 14.320312 17.640625 " fill-opacity="1" fill-rule="nonzero"/></g><g fill="#3c4937" fill-opacity="1"><g transform="translate(20.986894, 23.477257)"><g><path d="M 2.296875 -11.75 C 2.640625 -11.75 2.925781 -11.628906 3.15625 -11.390625 C 3.394531 -11.160156 3.515625 -10.878906 3.515625 -10.546875 L 3.515625 -7.328125 C 3.804688 -7.734375 4.160156 -8.066406 4.578125 -8.328125 C 5.003906 -8.585938 5.539062 -8.71875 6.1875 -8.71875 C 6.6875 -8.71875 7.164062 -8.617188 7.625 -8.421875 C 8.09375 -8.234375 8.507812 -7.953125 8.875 -7.578125 C 9.238281 -7.203125 9.53125 -6.738281 9.75 -6.1875 C 9.96875 -5.632812 10.078125 -5.003906 10.078125 -4.296875 L 10.078125 -4.265625 C 10.078125 -3.546875 9.96875 -2.910156 9.75 -2.359375 C 9.53125 -1.816406 9.242188 -1.359375 8.890625 -0.984375 C 8.535156 -0.609375 8.125 -0.320312 7.65625 -0.125 C 7.1875 0.0625 6.695312 0.15625 6.1875 0.15625 C 5.53125 0.15625 4.988281 0.03125 4.5625 -0.21875 C 4.144531 -0.476562 3.796875 -0.78125 3.515625 -1.125 L 3.515625 -1.109375 C 3.515625 -0.773438 3.394531 -0.488281 3.15625 -0.25 C 2.925781 -0.0195312 2.640625 0.09375 2.296875 0.09375 C 1.953125 0.09375 1.660156 -0.0195312 1.421875 -0.25 C 1.191406 -0.488281 1.078125 -0.78125 1.078125 -1.125 L 1.078125 -10.546875 C 1.078125 -10.878906 1.191406 -11.160156 1.421875 -11.390625 C 1.660156 -11.628906 1.953125 -11.75 2.296875 -11.75 Z M 3.484375 -4.296875 L 3.484375 -4.265625 C 3.484375 -3.910156 3.535156 -3.585938 3.640625 -3.296875 C 3.753906 -3.003906 3.90625 -2.753906 4.09375 -2.546875 C 4.28125 -2.335938 4.5 -2.175781 4.75 -2.0625 C 5 -1.957031 5.269531 -1.90625 5.5625 -1.90625 C 5.84375 -1.90625 6.109375 -1.957031 6.359375 -2.0625 C 6.609375 -2.175781 6.828125 -2.335938 7.015625 -2.546875 C 7.210938 -2.753906 7.367188 -3 7.484375 -3.28125 C 7.597656 -3.570312 7.65625 -3.898438 7.65625 -4.265625 L 7.65625 -4.296875 C 7.65625 -4.648438 7.597656 -4.972656 7.484375 -5.265625 C 7.367188 -5.554688 7.210938 -5.804688 7.015625 -6.015625 C 6.828125 -6.222656 6.609375 -6.378906 6.359375 -6.484375 C 6.109375 -6.597656 5.84375 -6.65625 5.5625 -6.65625 C 5.269531 -6.65625 5 -6.597656 4.75 -6.484375 C 4.5 -6.378906 4.28125 -6.222656 4.09375 -6.015625 C 3.90625 -5.804688 3.753906 -5.554688 3.640625 -5.265625 C 3.535156 -4.972656 3.484375 -4.648438 3.484375 -4.296875 Z M 3.484375 -4.296875 "/></g></g></g><g fill="#3c4937" fill-opacity="1"><g transform="translate(30.103056, 23.477257)"><g><path d="M 2.40625 -8.65625 C 2.75 -8.65625 3.035156 -8.535156 3.265625 -8.296875 C 3.503906 -8.066406 3.625 -7.78125 3.625 -7.4375 L 3.625 -1.125 C 3.625 -0.78125 3.503906 -0.488281 3.265625 -0.25 C 3.035156 -0.0195312 2.75 0.09375 2.40625 0.09375 C 2.070312 0.09375 1.785156 -0.0195312 1.546875 -0.25 C 1.316406 -0.488281 1.203125 -0.78125 1.203125 -1.125 L 1.203125 -7.4375 C 1.203125 -7.78125 1.316406 -8.066406 1.546875 -8.296875 C 1.785156 -8.535156 2.070312 -8.65625 2.40625 -8.65625 Z M 2.40625 -11.734375 C 2.789062 -11.734375 3.113281 -11.628906 3.375 -11.421875 C 3.632812 -11.222656 3.765625 -10.953125 3.765625 -10.609375 L 3.765625 -10.578125 C 3.765625 -10.222656 3.632812 -9.941406 3.375 -9.734375 C 3.113281 -9.523438 2.789062 -9.421875 2.40625 -9.421875 C 2.03125 -9.421875 1.707031 -9.523438 1.4375 -9.734375 C 1.175781 -9.941406 1.046875 -10.222656 1.046875 -10.578125 L 1.046875 -10.609375 C 1.046875 -10.953125 1.175781 -11.222656 1.4375 -11.421875 C 1.707031 -11.628906 2.03125 -11.734375 2.40625 -11.734375 Z M 2.40625 -11.734375 "/></g></g></g><g fill="#3c4937" fill-opacity="1"><g transform="translate(33.264141, 23.477257)"><g><path d="M 0.703125 -4.296875 C 0.703125 -5.003906 0.8125 -5.632812 1.03125 -6.1875 C 1.25 -6.738281 1.535156 -7.203125 1.890625 -7.578125 C 2.242188 -7.953125 2.65625 -8.234375 3.125 -8.421875 C 3.59375 -8.617188 4.082031 -8.71875 4.59375 -8.71875 C 5.25 -8.71875 5.785156 -8.585938 6.203125 -8.328125 C 6.617188 -8.078125 6.972656 -7.78125 7.265625 -7.4375 L 7.265625 -10.546875 C 7.265625 -10.878906 7.378906 -11.160156 7.609375 -11.390625 C 7.847656 -11.628906 8.140625 -11.75 8.484375 -11.75 C 8.816406 -11.75 9.097656 -11.628906 9.328125 -11.390625 C 9.566406 -11.160156 9.6875 -10.878906 9.6875 -10.546875 L 9.6875 -1.125 C 9.6875 -0.78125 9.566406 -0.488281 9.328125 -0.25 C 9.097656 -0.0195312 8.816406 0.09375 8.484375 0.09375 C 8.140625 0.09375 7.847656 -0.0195312 7.609375 -0.25 C 7.378906 -0.488281 7.265625 -0.78125 7.265625 -1.125 L 7.265625 -1.234375 C 6.960938 -0.828125 6.601562 -0.492188 6.1875 -0.234375 C 5.769531 0.0234375 5.238281 0.15625 4.59375 0.15625 C 4.09375 0.15625 3.609375 0.0625 3.140625 -0.125 C 2.671875 -0.320312 2.253906 -0.609375 1.890625 -0.984375 C 1.535156 -1.359375 1.25 -1.816406 1.03125 -2.359375 C 0.8125 -2.910156 0.703125 -3.546875 0.703125 -4.265625 Z M 3.125 -4.296875 L 3.125 -4.265625 C 3.125 -3.910156 3.179688 -3.585938 3.296875 -3.296875 C 3.410156 -3.003906 3.5625 -2.753906 3.75 -2.546875 C 3.945312 -2.335938 4.171875 -2.175781 4.421875 -2.0625 C 4.671875 -1.957031 4.9375 -1.90625 5.21875 -1.90625 C 5.507812 -1.90625 5.78125 -1.957031 6.03125 -2.0625 C 6.28125 -2.175781 6.5 -2.335938 6.6875 -2.546875 C 6.875 -2.753906 7.019531 -3.003906 7.125 -3.296875 C 7.238281 -3.585938 7.296875 -3.910156 7.296875 -4.265625 L 7.296875 -4.296875 C 7.296875 -4.648438 7.238281 -4.972656 7.125 -5.265625 C 7.019531 -5.554688 6.875 -5.804688 6.6875 -6.015625 C 6.5 -6.222656 6.28125 -6.378906 6.03125 -6.484375 C 5.78125 -6.597656 5.507812 -6.65625 5.21875 -6.65625 C 4.9375 -6.65625 4.671875 -6.597656 4.421875 -6.484375 C 4.171875 -6.378906 3.945312 -6.222656 3.75 -6.015625 C 3.5625 -5.804688 3.410156 -5.554688 3.296875 -5.265625 C 3.179688 -4.984375 3.125 -4.660156 3.125 -4.296875 Z M 3.125 -4.296875 "/></g></g></g><g fill="#3c4937" fill-opacity="1"><g transform="translate(42.380303, 23.477257)"><g><path d="M 6.671875 -11.375 C 7.515625 -11.375 8.226562 -11.273438 8.8125 -11.078125 C 9.394531 -10.878906 9.925781 -10.597656 10.40625 -10.234375 C 10.539062 -10.140625 10.65625 -10.003906 10.75 -9.828125 C 10.84375 -9.660156 10.890625 -9.472656 10.890625 -9.265625 C 10.890625 -8.921875 10.769531 -8.632812 10.53125 -8.40625 C 10.300781 -8.175781 10.015625 -8.0625 9.671875 -8.0625 C 9.503906 -8.0625 9.359375 -8.085938 9.234375 -8.140625 C 9.117188 -8.191406 9.019531 -8.242188 8.9375 -8.296875 C 8.601562 -8.554688 8.25 -8.753906 7.875 -8.890625 C 7.507812 -9.035156 7.101562 -9.109375 6.65625 -9.109375 C 6.1875 -9.109375 5.753906 -9.015625 5.359375 -8.828125 C 4.960938 -8.648438 4.617188 -8.398438 4.328125 -8.078125 C 4.035156 -7.753906 3.8125 -7.382812 3.65625 -6.96875 C 3.5 -6.550781 3.421875 -6.101562 3.421875 -5.625 L 3.421875 -5.59375 C 3.421875 -5.113281 3.5 -4.660156 3.65625 -4.234375 C 3.8125 -3.804688 4.03125 -3.429688 4.3125 -3.109375 C 4.601562 -2.796875 4.945312 -2.546875 5.34375 -2.359375 C 5.738281 -2.171875 6.175781 -2.078125 6.65625 -2.078125 C 7.175781 -2.078125 7.625 -2.148438 8 -2.296875 C 8.382812 -2.441406 8.75 -2.660156 9.09375 -2.953125 C 9.300781 -3.128906 9.546875 -3.21875 9.828125 -3.21875 C 10.128906 -3.21875 10.394531 -3.109375 10.625 -2.890625 C 10.851562 -2.671875 10.96875 -2.40625 10.96875 -2.09375 C 10.96875 -1.894531 10.925781 -1.726562 10.84375 -1.59375 C 10.769531 -1.457031 10.675781 -1.332031 10.5625 -1.21875 C 10.070312 -0.757812 9.507812 -0.410156 8.875 -0.171875 C 8.25 0.0664062 7.484375 0.1875 6.578125 0.1875 C 5.753906 0.1875 4.988281 0.0390625 4.28125 -0.25 C 3.582031 -0.550781 2.976562 -0.957031 2.46875 -1.46875 C 1.957031 -1.988281 1.554688 -2.597656 1.265625 -3.296875 C 0.984375 -4.003906 0.84375 -4.757812 0.84375 -5.5625 L 0.84375 -5.59375 C 0.84375 -6.382812 0.984375 -7.128906 1.265625 -7.828125 C 1.554688 -8.523438 1.957031 -9.132812 2.46875 -9.65625 C 2.976562 -10.1875 3.585938 -10.601562 4.296875 -10.90625 C 5.015625 -11.21875 5.804688 -11.375 6.671875 -11.375 Z M 6.671875 -11.375 "/></g></g></g><g fill="#3c4937" fill-opacity="1"><g transform="translate(52.502282, 23.477257)"><g><path d="M 1.078125 -1.125 L 1.078125 -7.4375 C 1.078125 -7.78125 1.191406 -8.066406 1.421875 -8.296875 C 1.660156 -8.535156 1.953125 -8.65625 2.296875 -8.65625 C 2.640625 -8.65625 2.925781 -8.535156 3.15625 -8.296875 C 3.394531 -8.066406 3.515625 -7.78125 3.515625 -7.4375 L 3.515625 -7.0625 C 3.691406 -7.476562 3.914062 -7.847656 4.1875 -8.171875 C 4.46875 -8.492188 4.789062 -8.65625 5.15625 -8.65625 C 5.53125 -8.65625 5.820312 -8.539062 6.03125 -8.3125 C 6.238281 -8.09375 6.34375 -7.8125 6.34375 -7.46875 C 6.34375 -7.15625 6.25 -6.90625 6.0625 -6.71875 C 5.882812 -6.53125 5.671875 -6.40625 5.421875 -6.34375 C 4.804688 -6.175781 4.332031 -5.851562 4 -5.375 C 3.675781 -4.90625 3.515625 -4.242188 3.515625 -3.390625 L 3.515625 -1.125 C 3.515625 -0.78125 3.394531 -0.488281 3.15625 -0.25 C 2.925781 -0.0195312 2.640625 0.09375 2.296875 0.09375 C 1.953125 0.09375 1.660156 -0.0195312 1.421875 -0.25 C 1.191406 -0.488281 1.078125 -0.78125 1.078125 -1.125 Z M 1.078125 -1.125 "/></g></g></g><g fill="#3c4937" fill-opacity="1"><g transform="translate(57.515346, 23.477257)"><g><path d="M 0.578125 -2.484375 C 0.578125 -2.953125 0.660156 -3.359375 0.828125 -3.703125 C 0.992188 -4.046875 1.226562 -4.328125 1.53125 -4.546875 C 1.84375 -4.773438 2.207031 -4.941406 2.625 -5.046875 C 3.039062 -5.160156 3.507812 -5.21875 4.03125 -5.21875 C 4.46875 -5.21875 4.847656 -5.1875 5.171875 -5.125 C 5.492188 -5.0625 5.804688 -4.976562 6.109375 -4.875 L 6.109375 -5.015625 C 6.109375 -6.054688 5.5 -6.578125 4.28125 -6.578125 C 3.9375 -6.578125 3.625 -6.566406 3.34375 -6.546875 C 3.0625 -6.523438 2.816406 -6.457031 2.609375 -6.34375 C 2.515625 -6.300781 2.394531 -6.28125 2.25 -6.28125 C 1.976562 -6.28125 1.742188 -6.375 1.546875 -6.5625 C 1.347656 -6.75 1.25 -6.984375 1.25 -7.265625 C 1.25 -7.472656 1.304688 -7.660156 1.421875 -7.828125 C 1.546875 -8.003906 1.707031 -8.128906 1.90625 -8.203125 C 2.28125 -8.359375 2.679688 -8.472656 3.109375 -8.546875 C 3.546875 -8.617188 4.050781 -8.65625 4.625 -8.65625 C 5.882812 -8.65625 6.835938 -8.351562 7.484375 -7.75 C 8.128906 -7.144531 8.453125 -6.21875 8.453125 -4.96875 L 8.453125 -1.0625 C 8.453125 -0.738281 8.335938 -0.460938 8.109375 -0.234375 C 7.878906 -0.015625 7.597656 0.09375 7.265625 0.09375 C 6.910156 0.09375 6.625 -0.0078125 6.40625 -0.21875 C 6.195312 -0.425781 6.09375 -0.65625 6.09375 -0.90625 L 6.09375 -0.921875 C 5.800781 -0.597656 5.445312 -0.335938 5.03125 -0.140625 C 4.625 0.0546875 4.117188 0.15625 3.515625 0.15625 C 3.109375 0.15625 2.726562 0.101562 2.375 0 C 2.019531 -0.113281 1.707031 -0.28125 1.4375 -0.5 C 1.164062 -0.726562 0.953125 -1.003906 0.796875 -1.328125 C 0.648438 -1.660156 0.578125 -2.035156 0.578125 -2.453125 Z M 2.921875 -2.59375 L 2.921875 -2.5625 C 2.921875 -2.226562 3.039062 -1.96875 3.28125 -1.78125 C 3.53125 -1.601562 3.851562 -1.515625 4.25 -1.515625 C 4.820312 -1.515625 5.28125 -1.648438 5.625 -1.921875 C 5.96875 -2.203125 6.140625 -2.566406 6.140625 -3.015625 L 6.140625 -3.453125 C 5.929688 -3.546875 5.695312 -3.617188 5.4375 -3.671875 C 5.175781 -3.734375 4.894531 -3.765625 4.59375 -3.765625 C 4.070312 -3.765625 3.660156 -3.660156 3.359375 -3.453125 C 3.066406 -3.253906 2.921875 -2.96875 2.921875 -2.59375 Z M 2.921875 -2.59375 "/></g></g></g><g fill="#3c4937" fill-opacity="1"><g transform="translate(65.306386, 23.477257)"><g><path d="M 0.015625 -7.46875 C 0.015625 -7.75 0.113281 -7.988281 0.3125 -8.1875 C 0.507812 -8.382812 0.742188 -8.484375 1.015625 -8.484375 L 1.5 -8.484375 L 1.5 -9.015625 C 1.5 -9.921875 1.710938 -10.601562 2.140625 -11.0625 C 2.578125 -11.53125 3.25 -11.765625 4.15625 -11.765625 C 4.34375 -11.765625 4.539062 -11.757812 4.75 -11.75 C 4.96875 -11.738281 5.164062 -11.703125 5.34375 -11.640625 C 5.53125 -11.578125 5.679688 -11.472656 5.796875 -11.328125 C 5.910156 -11.179688 5.96875 -10.984375 5.96875 -10.734375 C 5.96875 -10.453125 5.867188 -10.210938 5.671875 -10.015625 C 5.484375 -9.816406 5.253906 -9.71875 4.984375 -9.71875 L 4.78125 -9.71875 C 4.1875 -9.71875 3.890625 -9.410156 3.890625 -8.796875 L 3.890625 -8.46875 L 4.953125 -8.46875 C 5.222656 -8.46875 5.457031 -8.367188 5.65625 -8.171875 C 5.851562 -7.984375 5.953125 -7.75 5.953125 -7.46875 C 5.953125 -7.195312 5.851562 -6.960938 5.65625 -6.765625 C 5.457031 -6.578125 5.222656 -6.484375 4.953125 -6.484375 L 3.921875 -6.484375 L 3.921875 -1.125 C 3.921875 -0.78125 3.800781 -0.488281 3.5625 -0.25 C 3.332031 -0.0195312 3.050781 0.09375 2.71875 0.09375 C 2.375 0.09375 2.082031 -0.0195312 1.84375 -0.25 C 1.613281 -0.488281 1.5 -0.78125 1.5 -1.125 L 1.5 -6.484375 L 1.015625 -6.484375 C 0.742188 -6.484375 0.507812 -6.578125 0.3125 -6.765625 C 0.113281 -6.960938 0.015625 -7.195312 0.015625 -7.46875 Z M 0.015625 -7.46875 "/></g></g></g><g fill="#3c4937" fill-opacity="1"><g transform="translate(69.7447, 23.477257)"><g><path d="M 1.03125 -8.5625 L 1.484375 -8.5625 L 1.484375 -9.625 C 1.484375 -9.96875 1.597656 -10.253906 1.828125 -10.484375 C 2.066406 -10.722656 2.359375 -10.84375 2.703125 -10.84375 C 3.035156 -10.84375 3.316406 -10.722656 3.546875 -10.484375 C 3.785156 -10.253906 3.90625 -9.96875 3.90625 -9.625 L 3.90625 -8.5625 L 4.984375 -8.5625 C 5.265625 -8.5625 5.503906 -8.457031 5.703125 -8.25 C 5.910156 -8.050781 6.015625 -7.804688 6.015625 -7.515625 C 6.015625 -7.234375 5.910156 -6.988281 5.703125 -6.78125 C 5.503906 -6.582031 5.265625 -6.484375 4.984375 -6.484375 L 3.90625 -6.484375 L 3.90625 -2.828125 C 3.90625 -2.273438 4.164062 -2 4.6875 -2 C 4.738281 -2 4.796875 -2 4.859375 -2 C 4.921875 -2.007812 4.960938 -2.015625 4.984375 -2.015625 C 5.253906 -2.015625 5.488281 -1.914062 5.6875 -1.71875 C 5.882812 -1.519531 5.984375 -1.28125 5.984375 -1 C 5.984375 -0.75 5.914062 -0.546875 5.78125 -0.390625 C 5.644531 -0.242188 5.472656 -0.128906 5.265625 -0.046875 C 5.054688 0.0234375 4.835938 0.0703125 4.609375 0.09375 C 4.378906 0.125 4.164062 0.140625 3.96875 0.140625 C 3.613281 0.140625 3.28125 0.0976562 2.96875 0.015625 C 2.65625 -0.0546875 2.390625 -0.191406 2.171875 -0.390625 C 1.960938 -0.597656 1.796875 -0.863281 1.671875 -1.1875 C 1.546875 -1.519531 1.484375 -1.929688 1.484375 -2.421875 L 1.484375 -6.484375 L 1.03125 -6.484375 C 0.75 -6.484375 0.503906 -6.582031 0.296875 -6.78125 C 0.0976562 -6.988281 0 -7.234375 0 -7.515625 C 0 -7.804688 0.0976562 -8.050781 0.296875 -8.25 C 0.503906 -8.457031 0.75 -8.5625 1.03125 -8.5625 Z M 1.03125 -8.5625 "/></g></g></g><g fill="#3c4937" fill-opacity="1"><g transform="translate(74.710926, 23.477257)"><g><path d="M 0.890625 -1.296875 C 0.890625 -1.679688 1.019531 -2.003906 1.28125 -2.265625 C 1.539062 -2.523438 1.875 -2.65625 2.28125 -2.65625 C 2.6875 -2.65625 3.019531 -2.523438 3.28125 -2.265625 C 3.539062 -2.003906 3.671875 -1.679688 3.671875 -1.296875 L 3.671875 -1.265625 C 3.671875 -0.878906 3.539062 -0.554688 3.28125 -0.296875 C 3.019531 -0.0351562 2.6875 0.09375 2.28125 0.09375 C 1.875 0.09375 1.539062 -0.0351562 1.28125 -0.296875 C 1.019531 -0.554688 0.890625 -0.878906 0.890625 -1.265625 Z M 0.890625 -1.296875 "/></g></g></g></svg>